PathFileType	4	(X/Y/Z)	9_coords_data.trc
DataRate	CameraRate	NumFrames	NumMarkers	Units	OrigDataRate	OrigDataStartFrame	OrigNumFrames
30.0	30.0	4	21	m	30.0	1	47
Frame#	Time	THUMB_TIP	THUMB_IP	THUMB_MCP	THUMB_CMC	INDEX_TIP	INDEX_DIP	INDEX_PIP	INDEX_MCP	MIDDLE_TIP	MIDDLE_DIP	MIDDLE_PIP	MIDDLE_MCP	RING_TIP	RING_DIP	RING_PIP	RING_MCP	PINKY_TIP	PINKY_DIP	PINKY_PIP	PINKY_MCP	WRIST
X1	Y1	Z1	X2	Y2	Z2	X3	Y3	Z3	X4	Y4	Z4	X5	Y5	Z5	X6	Y6	Z6	X7	Y7	Z7	X8	Y8	Z8	X9	Y9	Z9	X10	Y10	Z10	X11	Y11	Z11	X12	Y12	Z12	X13	Y13	Z13	X14	Y14	Z14	X15	Y15	Z15	X16	Y16	Z16	X17	Y17	Z17	X18	Y18	Z18	X19	Y19	Z19	X20	Y20	Z20	X21	Y21	Z21
0	0.0	-0.043638900756835936	-0.08425240325927734	1.026989990234375	-0.03999589920043945	-0.06071160125732422	1.040800048828125	-0.04129850006103516	-0.04143059921264648	1.066699951171875	-0.04081060028076172	-0.0038698298931121823	1.0813599853515625	-0.016231300354003907	-0.01029069995880127	1.0563699951171874	-0.015216799736022949	-0.01071310043334961	1.03493994140625	-0.021738500595092775	-0.01364579963684082	1.01302001953125	-0.05714229965209961	-0.023740699768066406	1.029469970703125	-0.03519620132446289	-0.0020496699810028073	1.066949951171875	-0.021833700180053713	0.005602409839630127	1.051949951171875	-0.019772300720214842	0.009152979850769042	1.022010009765625	-0.05929290008544922	-0.0006592029929161071	1.0253199462890625	-0.04412300109863281	0.008371290206909179	1.0764200439453124	-0.02642620086669922	0.018715200424194337	1.0605400390625	-0.02363599967956543	0.02878529930114746	1.0358699951171875	-0.06311959838867187	0.02240340042114258	1.03377001953125	-0.04158489990234375	0.021155799865722656	1.0723699951171874	-0.028481300354003907	0.034342899322509765	1.06156005859375	-0.03275289916992188	0.04491680145263672	1.0484599609375	-0.0653386001586914	0.04133409881591797	1.05031005859375	-0.07949990081787109	0.0019846099615097043	1.1175
1	0.03333333333333333	-0.0430703010559082	-0.08309130096435546	1.027199951171875	-0.03990560150146484	-0.05954029846191406	1.0406099853515625	-0.04109460067749023	-0.04100019836425781	1.0646099853515625	-0.04462649917602539	-0.009645620346069335	1.088	-0.021670999526977538	-0.01070259952545166	1.0556400146484375	-0.015880499839782715	-0.010145700454711915	1.0362900390625	-0.021934200286865234	-0.013108400344848633	1.0131699829101561	-0.05598550033569336	-0.023289600372314454	1.0290899658203125	-0.03363589859008789	-0.0020055699348449697	1.06618994140625	-0.02170089912414551	0.005534830093383789	1.0516700439453126	-0.02022990036010742	0.009078020095825196	1.0229500122070312	-0.06090069961547852	-9.6246398985385e-05	1.0263900146484375	-0.04215560150146484	0.00982254981994629	1.073760009765625	-0.028054500579833986	0.01972089958190918	1.060699951171875	-0.024971000671386717	0.029075199127197266	1.0350699462890625	-0.0645438995361328	0.022190200805664063	1.0353699951171875	-0.04292319869995117	0.022534299850463867	1.0749000244140625	-0.03113960075378418	0.03468740081787109	1.0643499755859376	-0.03350529861450195	0.04566590118408203	1.04875	-0.06547689819335938	0.041572799682617186	1.049260009765625	-0.0753156967163086	0.003227869987487793	1.1140899658203125
2	0.06666666666666667	-0.043021598815917966	-0.08282340240478515	1.0271099853515624	-0.03984389877319336	-0.05928580093383789	1.040550048828125	-0.04105690002441406	-0.04077030181884766	1.0645999755859374	-0.044663700103759765	-0.00947383975982666	1.0879200439453125	-0.02097649955749512	-0.010222299575805664	1.055550048828125	-0.016074899673461915	-0.010120599746704102	1.0366099853515625	-0.02193589973449707	-0.013130999565124512	1.01325	-0.05603779983520508	-0.02319230079650879	1.0292099609375	-0.033762500762939456	-0.001722040057182312	1.0661800537109376	-0.021656099319458007	0.0057070798873901365	1.0516600341796876	-0.02027560043334961	0.009109210014343262	1.0229099731445312	-0.06094869995117187	8.736309595406e-06	1.02647998046875	-0.04179119873046875	0.010014900207519531	1.073510009765625	-0.02806879997253418	0.019880300521850587	1.06068994140625	-0.02503260040283203	0.029212099075317383	1.034969970703125	-0.06457150268554687	0.022314599990844727	1.03543994140625	-0.043096099853515625	0.022862600326538085	1.07525	-0.031105899810791017	0.03481039810180664	1.064260009765625	-0.033537300109863284	0.04580810165405273	1.04877001953125	-0.06544409942626953	0.0417677001953125	1.049199951171875	-0.07539600372314453	0.0034467799663543703	1.114449951171875
3	0.1	-0.04276850128173828	-0.08261530303955078	1.0268199462890626	-0.039701499938964845	-0.059124801635742186	1.0403299560546875	-0.041067100524902346	-0.040686901092529294	1.064449951171875	-0.0446515998840332	-0.00930692958831787	1.0879599609375	-0.02119070053100586	-0.010380900382995606	1.05556005859375	-0.015909199714660646	-0.010218799591064453	1.036510009765625	-0.022018199920654298	-0.013258999824523925	1.013219970703125	-0.056179901123046876	-0.023256999969482422	1.029199951171875	-0.0334723014831543	-0.001719050049781799	1.0659100341796874	-0.0217278995513916	0.005617959976196289	1.0515799560546875	-0.020330799102783202	0.008960370063781739	1.0229099731445312	-0.06109719848632812	-2.9574699699878002e-05	1.026489990234375	-0.04192520141601563	0.010039600372314453	1.0733399658203124	-0.02812030029296875	0.01986709976196289	1.0606199951171875	-0.025132499694824218	0.029147499084472655	1.0348299560546874	-0.06477059936523437	0.022300199508666994	1.03547998046875	-0.04296089935302734	0.022778299331665038	1.074550048828125	-0.031315500259399415	0.03473780059814453	1.06422998046875	-0.03359619903564453	0.04571360015869141	1.048719970703125	-0.06554759979248047	0.041753501892089845	1.04918994140625	-0.07497630310058594	0.003423490047454834	1.1135
